<svg xmlns="http://www.w3.org/2000/svg" width="296" height="311" viewBox="0 0 296 311">
      <style>
        .pet { transform-origin: center; }
      </style>
      <!-- Theme Background -->
      
        <rect x="5" y="5" width="286" height="296" rx="12" ry="12" fill="rgba(45, 51, 59, 0.15)"/>
      
      <g transform="translate(20, 20)" opacity="1">
        <g class="pet">
            <rect x="80" y="16" width="16" height="16" fill="#2d333b" /><rect x="96" y="16" width="16" height="16" fill="#2d333b" /><rect x="112" y="16" width="16" height="16" fill="#2d333b" /><rect x="128" y="16" width="16" height="16" fill="#2d333b" /><rect x="144" y="16" width="16" height="16" fill="#2d333b" /><rect x="160" y="16" width="16" height="16" fill="#2d333b" /><rect x="64" y="32" width="16" height="16" fill="#2d333b" /><rect x="80" y="32" width="16" height="16" fill="#311b92" /><rect x="96" y="32" width="16" height="16" fill="#311b92" /><rect x="112" y="32" width="16" height="16" fill="#311b92" /><rect x="128" y="32" width="16" height="16" fill="#311b92" /><rect x="144" y="32" width="16" height="16" fill="#311b92" /><rect x="160" y="32" width="16" height="16" fill="#311b92" /><rect x="176" y="32" width="16" height="16" fill="#2d333b" /><rect x="48" y="48" width="16" height="16" fill="#2d333b" /><rect x="64" y="48" width="16" height="16" fill="#311b92" /><rect x="80" y="48" width="16" height="16" fill="#311b92" /><rect x="96" y="48" width="16" height="16" fill="#311b92" /><rect x="112" y="48" width="16" height="16" fill="#311b92" /><rect x="128" y="48" width="16" height="16" fill="#311b92" /><rect x="144" y="48" width="16" height="16" fill="#311b92" /><rect x="160" y="48" width="16" height="16" fill="#311b92" /><rect x="176" y="48" width="16" height="16" fill="#311b92" /><rect x="192" y="48" width="16" height="16" fill="#2d333b" /><rect x="32" y="64" width="16" height="16" fill="#2d333b" /><rect x="48" y="64" width="16" height="16" fill="#311b92" /><rect x="64" y="64" width="16" height="16" fill="#311b92" /><rect x="80" y="64" width="16" height="16" fill="#311b92" /><rect x="96" y="64" width="16" height="16" fill="#FF0000" /><rect x="112" y="64" width="16" height="16" fill="#FF0000" /><rect x="128" y="64" width="16" height="16" fill="#FF0000" /><rect x="144" y="64" width="16" height="16" fill="#311b92" /><rect x="160" y="64" width="16" height="16" fill="#311b92" /><rect x="176" y="64" width="16" height="16" fill="#311b92" /><rect x="192" y="64" width="16" height="16" fill="#2d333b" /><rect x="32" y="80" width="16" height="16" fill="#2d333b" /><rect x="48" y="80" width="16" height="16" fill="#311b92" /><rect x="64" y="80" width="16" height="16" fill="#311b92" /><rect x="80" y="80" width="16" height="16" fill="#311b92" /><rect x="96" y="80" width="16" height="16" fill="#FF0000" /><rect x="112" y="80" width="16" height="16" fill="#FF0000" /><rect x="128" y="80" width="16" height="16" fill="#FF0000" /><rect x="144" y="80" width="16" height="16" fill="#311b92" /><rect x="160" y="80" width="16" height="16" fill="#311b92" /><rect x="176" y="80" width="16" height="16" fill="#311b92" /><rect x="192" y="80" width="16" height="16" fill="#2d333b" /><rect x="32" y="96" width="16" height="16" fill="#2d333b" /><rect x="48" y="96" width="16" height="16" fill="#311b92" /><rect x="64" y="96" width="16" height="16" fill="#311b92" /><rect x="80" y="96" width="16" height="16" fill="#311b92" /><rect x="96" y="96" width="16" height="16" fill="#311b92" /><rect x="112" y="96" width="16" height="16" fill="#311b92" /><rect x="128" y="96" width="16" height="16" fill="#311b92" /><rect x="144" y="96" width="16" height="16" fill="#311b92" /><rect x="160" y="96" width="16" height="16" fill="#311b92" /><rect x="176" y="96" width="16" height="16" fill="#311b92" /><rect x="192" y="96" width="16" height="16" fill="#311b92" /><rect x="208" y="96" width="16" height="16" fill="#2d333b" /><rect x="48" y="112" width="16" height="16" fill="#2d333b" /><rect x="64" y="112" width="16" height="16" fill="#311b92" /><rect x="80" y="112" width="16" height="16" fill="#311b92" /><rect x="96" y="112" width="16" height="16" fill="#311b92" /><rect x="112" y="112" width="16" height="16" fill="#311b92" /><rect x="128" y="112" width="16" height="16" fill="#311b92" /><rect x="144" y="112" width="16" height="16" fill="#311b92" /><rect x="160" y="112" width="16" height="16" fill="#311b92" /><rect x="176" y="112" width="16" height="16" fill="#311b92" /><rect x="192" y="112" width="16" height="16" fill="#2d333b" /><rect x="48" y="128" width="16" height="16" fill="#2d333b" /><rect x="64" y="128" width="16" height="16" fill="#311b92" /><rect x="80" y="128" width="16" height="16" fill="#311b92" /><rect x="96" y="128" width="16" height="16" fill="#311b92" /><rect x="112" y="128" width="16" height="16" fill="#311b92" /><rect x="128" y="128" width="16" height="16" fill="#311b92" /><rect x="144" y="128" width="16" height="16" fill="#311b92" /><rect x="160" y="128" width="16" height="16" fill="#311b92" /><rect x="176" y="128" width="16" height="16" fill="#311b92" /><rect x="192" y="128" width="16" height="16" fill="#2d333b" /><rect x="64" y="144" width="16" height="16" fill="#2d333b" /><rect x="80" y="144" width="16" height="16" fill="#311b92" /><rect x="96" y="144" width="16" height="16" fill="#311b92" /><rect x="112" y="144" width="16" height="16" fill="#311b92" /><rect x="128" y="144" width="16" height="16" fill="#311b92" /><rect x="144" y="144" width="16" height="16" fill="#311b92" /><rect x="160" y="144" width="16" height="16" fill="#311b92" /><rect x="176" y="144" width="16" height="16" fill="#2d333b" /><rect x="48" y="160" width="16" height="16" fill="#2d333b" /><rect x="64" y="160" width="16" height="16" fill="#311b92" /><rect x="80" y="160" width="16" height="16" fill="#311b92" /><rect x="96" y="160" width="16" height="16" fill="#311b92" /><rect x="112" y="160" width="16" height="16" fill="#311b92" /><rect x="128" y="160" width="16" height="16" fill="#311b92" /><rect x="144" y="160" width="16" height="16" fill="#311b92" /><rect x="160" y="160" width="16" height="16" fill="#311b92" /><rect x="176" y="160" width="16" height="16" fill="#311b92" /><rect x="192" y="160" width="16" height="16" fill="#2d333b" /><rect x="32" y="176" width="16" height="16" fill="#2d333b" /><rect x="80" y="176" width="16" height="16" fill="#2d333b" /><rect x="112" y="176" width="16" height="16" fill="#FF0000" /><rect x="128" y="176" width="16" height="16" fill="#FF0000" /><rect x="160" y="176" width="16" height="16" fill="#2d333b" /><rect x="208" y="176" width="16" height="16" fill="#2d333b" /><rect x="16" y="192" width="16" height="16" fill="#2d333b" /><rect x="64" y="192" width="16" height="16" fill="#2d333b" /><rect x="176" y="192" width="16" height="16" fill="#2d333b" /><rect x="224" y="192" width="16" height="16" fill="#2d333b" />
            
        </g>
        <!-- Seasonal Accessory (z-index: above pet) -->
        <!-- Seasonal: NEW_YEAR -->

    <g transform="translate(113, -29)">
      <!-- Party Hat Cone -->
      <polygon points="15,50 30,5 0,5" fill="#FF6B6B"/>
      <polygon points="15,50 30,5 22,5 15,35 8,5 0,5" fill="#4ECDC4"/>
      <polygon points="15,50 22,5 15,35" fill="#FFE66D"/>
      <!-- Pom-pom -->
      <circle cx="15" cy="3" r="5" fill="#FFE66D"/>
      <!-- Hat Band -->
      <rect x="0" y="45" width="30" height="5" rx="2" fill="#2D333B"/>
    </g>
  
      </g>
      
      <text x="50%" y="306" text-anchor="middle" font-family="monospace" font-size="11" fill="#666">
        Lvl 6 • 🔥 HYPER
      </text>
    
      
    </svg>