<svg xmlns="http://www.w3.org/2000/svg" width="296" height="341" viewBox="0 0 296 341">
      <style>
        .pet { transform-origin: center; }
      </style>
      <!-- Theme Background -->
      
        <rect x="5" y="5" width="286" height="326" rx="12" ry="12" fill="rgba(45, 51, 59, 0.15)"/>
      
      <!-- Weather Effects (behind pet) -->
      <g class="weather-layer" style="pointer-events: none;">
        
        <g fill="#FFD700">
          <circle cx="61.133746213541556" cy="58.72950084114933" r="2.383565388035438">
          <animate attributeName="opacity" values="0.3;1;0.3" dur="1.0318191015397966s" repeatCount="indefinite"/>
        </circle><circle cx="84.72105539285218" cy="118.13631733487436" r="1.2219977336663197">
          <animate attributeName="opacity" values="0.3;1;0.3" dur="2.1240387427036933s" repeatCount="indefinite"/>
        </circle><circle cx="93.58613722348397" cy="77.92783470466516" r="1.064755946584321">
          <animate attributeName="opacity" values="0.3;1;0.3" dur="1.4416354496045396s" repeatCount="indefinite"/>
        </circle><circle cx="231.7018567589149" cy="48.69912588973289" r="2.479185889407761">
          <animate attributeName="opacity" values="0.3;1;0.3" dur="1.7769894341296788s" repeatCount="indefinite"/>
        </circle><circle cx="93.81278790763727" cy="92.57531419320061" r="2.964021396953131">
          <animate attributeName="opacity" values="0.3;1;0.3" dur="2.5066896083501966s" repeatCount="indefinite"/>
        </circle><circle cx="218.68710300065098" cy="32.91030614721512" r="1.3423745111947172">
          <animate attributeName="opacity" values="0.3;1;0.3" dur="2.4402758348085793s" repeatCount="indefinite"/>
        </circle><circle cx="189.33330846771523" cy="90.49102896357998" r="1.7970260908215399">
          <animate attributeName="opacity" values="0.3;1;0.3" dur="1.4555189950052991s" repeatCount="indefinite"/>
        </circle><circle cx="158.3333857750793" cy="77.86320432335394" r="2.4696810994633225">
          <animate attributeName="opacity" values="0.3;1;0.3" dur="1.5803193037790062s" repeatCount="indefinite"/>
        </circle><circle cx="234.40092533658142" cy="90.70738010131664" r="1.379403972642196">
          <animate attributeName="opacity" values="0.3;1;0.3" dur="2.043974828082152s" repeatCount="indefinite"/>
        </circle><circle cx="89.66402060790976" cy="79.05118763390627" r="2.5992159573168907">
          <animate attributeName="opacity" values="0.3;1;0.3" dur="2.7868014123931415s" repeatCount="indefinite"/>
        </circle><circle cx="283.7963989568267" cy="10.656952636687718" r="1.1116614223094667">
          <animate attributeName="opacity" values="0.3;1;0.3" dur="2.8476152147952587s" repeatCount="indefinite"/>
        </circle><circle cx="153.11146671152292" cy="161.85746797863" r="1.8228011223775358">
          <animate attributeName="opacity" values="0.3;1;0.3" dur="1.634658780356176s" repeatCount="indefinite"/>
        </circle><circle cx="251.5947190994514" cy="98.27664771291472" r="2.2521287844022058">
          <animate attributeName="opacity" values="0.3;1;0.3" dur="1.3120129138643457s" repeatCount="indefinite"/>
        </circle><circle cx="109.2023998350961" cy="25.055258556587013" r="2.1721880106022637">
          <animate attributeName="opacity" values="0.3;1;0.3" dur="1.6520318574224668s" repeatCount="indefinite"/>
        </circle><circle cx="225.25061119438502" cy="115.25953462441184" r="1.922714516257098">
          <animate attributeName="opacity" values="0.3;1;0.3" dur="2.345966164343804s" repeatCount="indefinite"/>
        </circle>
        </g>
      
      </g>
      <!-- Evolution Effects (behind pet) -->
      <g class="evolution-layer" style="pointer-events: none;">
        
      </g>
      <g transform="translate(20, 20)" opacity="0.7">
        <g class="pet">
            <rect x="80" y="0" width="16" height="16" fill="#2d333b" /><rect x="112" y="0" width="16" height="16" fill="#2d333b" /><rect x="144" y="0" width="16" height="16" fill="#2d333b" /><rect x="48" y="16" width="16" height="16" fill="#2d333b" /><rect x="80" y="16" width="16" height="16" fill="#00ADD8" /><rect x="112" y="16" width="16" height="16" fill="#00ADD8" /><rect x="144" y="16" width="16" height="16" fill="#00ADD8" /><rect x="176" y="16" width="16" height="16" fill="#00ADD8" /><rect x="208" y="16" width="16" height="16" fill="#2d333b" /><rect x="32" y="32" width="16" height="16" fill="#2d333b" /><rect x="64" y="32" width="16" height="16" fill="#00ADD8" /><rect x="96" y="32" width="16" height="16" fill="#00ADD8" /><rect x="128" y="32" width="16" height="16" fill="#00ADD8" /><rect x="160" y="32" width="16" height="16" fill="#00ADD8" /><rect x="192" y="32" width="16" height="16" fill="#00ADD8" /><rect x="16" y="48" width="16" height="16" fill="#2d333b" /><rect x="48" y="48" width="16" height="16" fill="#00ADD8" /><rect x="80" y="48" width="16" height="16" fill="#2d333b" /><rect x="112" y="48" width="16" height="16" fill="#2d333b" /><rect x="144" y="48" width="16" height="16" fill="#00ADD8" /><rect x="176" y="48" width="16" height="16" fill="#00ADD8" /><rect x="208" y="48" width="16" height="16" fill="#2d333b" /><rect x="16" y="64" width="16" height="16" fill="#2d333b" /><rect x="48" y="64" width="16" height="16" fill="#00ADD8" /><rect x="80" y="64" width="16" height="16" fill="#2d333b" /><rect x="112" y="64" width="16" height="16" fill="#2d333b" /><rect x="144" y="64" width="16" height="16" fill="#00ADD8" /><rect x="176" y="64" width="16" height="16" fill="#00ADD8" /><rect x="208" y="64" width="16" height="16" fill="#2d333b" /><rect x="0" y="80" width="16" height="16" fill="#2d333b" /><rect x="32" y="80" width="16" height="16" fill="#00ADD8" /><rect x="64" y="80" width="16" height="16" fill="#00ADD8" /><rect x="96" y="80" width="16" height="16" fill="#00ADD8" /><rect x="128" y="80" width="16" height="16" fill="#00ADD8" /><rect x="160" y="80" width="16" height="16" fill="#00ADD8" /><rect x="192" y="80" width="16" height="16" fill="#2d333b" /><rect x="224" y="80" width="16" height="16" fill="#2d333b" /><rect x="0" y="96" width="16" height="16" fill="#2d333b" /><rect x="32" y="96" width="16" height="16" fill="#00ADD8" /><rect x="64" y="96" width="16" height="16" fill="#00ADD8" /><rect x="96" y="96" width="16" height="16" fill="#00ADD8" /><rect x="128" y="96" width="16" height="16" fill="#2d333b" /><rect x="160" y="96" width="16" height="16" fill="#00ADD8" /><rect x="192" y="96" width="16" height="16" fill="#00ADD8" /><rect x="224" y="96" width="16" height="16" fill="#2d333b" /><rect x="16" y="112" width="16" height="16" fill="#2d333b" /><rect x="48" y="112" width="16" height="16" fill="#00ADD8" /><rect x="80" y="112" width="16" height="16" fill="#00ADD8" /><rect x="112" y="112" width="16" height="16" fill="#2d333b" /><rect x="144" y="112" width="16" height="16" fill="#00ADD8" /><rect x="176" y="112" width="16" height="16" fill="#00ADD8" /><rect x="208" y="112" width="16" height="16" fill="#00ADD8" /><rect x="240" y="112" width="16" height="16" fill="#2d333b" /><rect x="32" y="128" width="16" height="16" fill="#2d333b" /><rect x="64" y="128" width="16" height="16" fill="#00ADD8" /><rect x="96" y="128" width="16" height="16" fill="#2d333b" /><rect x="128" y="128" width="16" height="16" fill="#00ADD8" /><rect x="160" y="128" width="16" height="16" fill="#00ADD8" /><rect x="192" y="128" width="16" height="16" fill="#00ADD8" /><rect x="224" y="128" width="16" height="16" fill="#2d333b" /><rect x="32" y="144" width="16" height="16" fill="#2d333b" /><rect x="64" y="144" width="16" height="16" fill="#00ADD8" /><rect x="96" y="144" width="16" height="16" fill="#2d333b" /><rect x="128" y="144" width="16" height="16" fill="#00ADD8" /><rect x="160" y="144" width="16" height="16" fill="#00ADD8" /><rect x="192" y="144" width="16" height="16" fill="#00ADD8" /><rect x="224" y="144" width="16" height="16" fill="#2d333b" /><rect x="16" y="160" width="16" height="16" fill="#2d333b" /><rect x="48" y="160" width="16" height="16" fill="#00ADD8" /><rect x="80" y="160" width="16" height="16" fill="#2d333b" /><rect x="112" y="160" width="16" height="16" fill="#00ADD8" /><rect x="144" y="160" width="16" height="16" fill="#00ADD8" /><rect x="176" y="160" width="16" height="16" fill="#00ADD8" /><rect x="208" y="160" width="16" height="16" fill="#2d333b" /><rect x="0" y="176" width="16" height="16" fill="#2d333b" /><rect x="32" y="176" width="16" height="16" fill="#00ADD8" /><rect x="64" y="176" width="16" height="16" fill="#2d333b" /><rect x="96" y="176" width="16" height="16" fill="#00ADD8" /><rect x="128" y="176" width="16" height="16" fill="#00ADD8" /><rect x="160" y="176" width="16" height="16" fill="#00ADD8" /><rect x="192" y="176" width="16" height="16" fill="#2d333b" /><rect x="16" y="192" width="16" height="16" fill="#2d333b" /><rect x="48" y="192" width="16" height="16" fill="#2d333b" /><rect x="80" y="192" width="16" height="16" fill="#00ADD8" /><rect x="112" y="192" width="16" height="16" fill="#00ADD8" /><rect x="144" y="192" width="16" height="16" fill="#00ADD8" /><rect x="176" y="192" width="16" height="16" fill="#2d333b" /><rect x="32" y="208" width="16" height="16" fill="#2d333b" /><rect x="64" y="208" width="16" height="16" fill="#2d333b" /><rect x="96" y="208" width="16" height="16" fill="#2d333b" /><rect x="128" y="208" width="16" height="16" fill="#2d333b" /><rect x="160" y="208" width="16" height="16" fill="#2d333b" />
            
        <animateTransform 
            attributeName="transform" 
            type="translate" 
            values="0 0; 0 -8; 0 0" 
            dur="3s" 
            repeatCount="indefinite" 
        />
        <animate
            attributeName="opacity"
            values="0.7; 0.4; 0.7"
            dur="2s"
            repeatCount="indefinite"
        />
        </g>
        <!-- Speech Bubble -->
        
    <g transform="translate(226, -25)">
      <!-- Speech bubble -->
      <rect x="0" y="0" width="104" height="24" rx="10" ry="10" 
            fill="#FFFFFF" stroke="#2d333b" stroke-width="1.5"/>
      <!-- Bubble tail -->
      <polygon points="15,24 20,32 25,24" 
               fill="#FFFFFF" stroke="#2d333b" stroke-width="1.5"/>
      <line x1="16" y1="24" x2="24" y2="24" stroke="#FFFFFF" stroke-width="2"/>
      <!-- Text -->
      <text x="52" y="16" 
            font-family="'Segoe UI', Arial, sans-serif" font-size="10" 
            fill="#2d333b" text-anchor="middle">So lonely...</text>
    </g>
  
        <!-- Seasonal Accessory (z-index: above pet) -->
        
      </g>
      
      <!-- Level & Mood Text -->
      <text x="20" y="299" font-family="monospace" font-size="11" fill="#666">
        💀 Lv.0 
      </text>
      <text x="276" y="299" text-anchor="end" font-family="monospace" font-size="11" fill="#666">
        👻 GHOST 
      </text>
      
      <!-- XP Progress Bar -->
      <rect x="20" y="306" width="256" height="8" rx="4" fill="#e0e0e0" stroke="#0288d1" stroke-width="1"/>
      <rect x="20" y="306" width="0" height="8" rx="4" fill="#e53935">
        
      </rect>
      
      <!-- XP Text -->
      <text x="50%" y="329" text-anchor="middle" font-family="monospace" font-size="9" fill="#666">
        💀 DEAD - Commit to revive!
      </text>
    
      
      <!-- Achievement Badges -->
      <g transform="translate(15, 311)">
    <g class="achievements">
      
      <g transform="translate(5, 0)">
        <title>Night Owl: Late night commit</title>
        <circle cx="10" cy="10" r="10" fill="rgba(255,255,255,0.9)" stroke="#ddd" stroke-width="1"/>
        <text x="10" y="14" text-anchor="middle" font-size="11">🦉</text>
      </g>
    
      
    </g>
  </g>
    </svg>